inDegrees=no
num_controls=7
num_derivatives=13
num_iterations=98
num_multipliers=7
num_parameters=0
num_slacks=7
num_states=26
objective=0.477827
objective_accelerations=0.043411
objective_balance=0.003854
objective_effort=0.040279
objective_height=0.384579
objective_ligament=0.005704
solver_duration=1249.554245
status=Solve_Succeeded
success=true
DataType=double
version=3
OpenSimVersion=4.5
endheader
time	/jointset/ground_pelvis/pelvis_tilt/value	/jointset/ground_pelvis/pelvis_tx/value	/jointset/ground_pelvis/pelvis_ty/value	/jointset/hip_l/hip_flexion_l/value	/jointset/hip_l/hip_adduction_l/value	/jointset/hip_l/hip_rotation_l/value	/jointset/back/lumbar_extension/value	/jointset/patellofemoral_l/patellar_flexion_l/value	/jointset/knee_l/knee_flexion_l/value	/jointset/knee_l/knee_adduction_l/value	/jointset/knee_l/knee_rotation_l/value	/jointset/ankle_l/ankle_angle_l/value	/jointset/subtalar_l/subtalar_angle_l/value	/jointset/ground_pelvis/pelvis_tilt/speed	/jointset/ground_pelvis/pelvis_tx/speed	/jointset/ground_pelvis/pelvis_ty/speed	/jointset/hip_l/hip_flexion_l/speed	/jointset/hip_l/hip_adduction_l/speed	/jointset/hip_l/hip_rotation_l/speed	/jointset/back/lumbar_extension/speed	/jointset/patellofemoral_l/patellar_flexion_l/speed	/jointset/knee_l/knee_flexion_l/speed	/jointset/knee_l/knee_adduction_l/speed	/jointset/knee_l/knee_rotation_l/speed	/jointset/ankle_l/ankle_angle_l/speed	/jointset/subtalar_l/subtalar_angle_l/speed	/forceset/tau_hip_flexion_l	/forceset/tau_hip_adduction_l	/forceset/tau_hip_rotation_l	/forceset/tau_knee_flexion_l	/forceset/tau_ankle_angle_l	/forceset/tau_subtalar_angle_l	/forceset/tau_lumbar_extension	lambda_cid13_p0	lambda_cid13_p1	lambda_cid13_p2	lambda_cid13_p3	lambda_cid13_p4	lambda_cid13_p5	lambda_cid14_p0	/jointset/ground_pelvis/pelvis_tilt/accel	/jointset/ground_pelvis/pelvis_tx/accel	/jointset/ground_pelvis/pelvis_ty/accel	/jointset/hip_l/hip_flexion_l/accel	/jointset/hip_l/hip_adduction_l/accel	/jointset/hip_l/hip_rotation_l/accel	/jointset/back/lumbar_extension/accel	/jointset/patellofemoral_l/patellar_flexion_l/accel	/jointset/knee_l/knee_flexion_l/accel	/jointset/knee_l/knee_adduction_l/accel	/jointset/knee_l/knee_rotation_l/accel	/jointset/ankle_l/ankle_angle_l/accel	/jointset/subtalar_l/subtalar_angle_l/accel	gamma_cid13_p0	gamma_cid13_p1	gamma_cid13_p2	gamma_cid13_p3	gamma_cid13_p4	gamma_cid13_p5	gamma_cid14_p0
1.5	0.01109747413901545	-0.01456133470322499	0.8545620185415604	0.6650916688618901	-0.321945805337541	-0.1369517601762665	-0.7948477973449468	0.7627852720955712	0.7627852720957452	-0.1049003015560093	-0.1745193807275265	0.1429474791600502	0.02092654886864315	0.3160344074862131	0.240045556919565	0.4130107169124448	-1.962390394145741	0.08627287245151008	-0.6355697358028778	0.8432371110298111	-1.957379791080981	-1.957379791080861	-0.138982772237664	-0.0003545037622492427	-0.4292687822844006	-0.05049640451506429	-0.1920698124238104	0.003035119637917182	-0.004927879622259029	-0.2305114315212074	0.07359455259113822	0.05440837589101569	0.2758023783355988	-18.05588004302603	-23.27287440468651	6.459747892955877	-9.193083872487977	-669.636599941029	-90.44796235409315	-15.82016337899125	-0.02762695749351993	0.6655108893117957	-0.6038909485346189	-0.6776740934335388	0.4633396485221175	-0.3253536902679438	1.933056197033878	-0.951183916563745	-0.9511839165638848	-0.2721791236342093	0.03551796814673404	-0.2280486560580734	0.4504165834739705	2.920077357767468e-07	1.122772992628569e-06	-1.20919372485183e-06	1.261986748804384e-08	3.889996217398181e-07	5.46694967772355e-07	2.798024474737376e-07
1.51	0.01425627891898394	-0.01212784322979781	0.8586611270433609	0.6454356678030216	-0.321060718281762	-0.1433244921846598	-0.7863203281876485	0.7431661994437528	0.7431661994438999	-0.1063045189979897	-0.1745231572543778	0.1386437833962325	0.02044323903021516	0.31568295988539	0.2466247729953165	0.4067260771888549	-1.96855064667951	0.09074006845474507	-0.6388897954853346	0.8621307842558591	-1.966159226461566	-1.966159226461507	-0.1418742709093293	-0.0003871664139911205	-0.4313905647206282	-0.04615091952017072	-0.1847692938828226	0.002808340427277356	-0.004769493894294785	-0.2268905500352221	0.07438349726568304	0.05307371139074175	0.2686612969587572	-17.59667836204481	-22.77132649168998	6.377153257581009	-9.104273688706909	-665.1769209283353	-89.74356365259192	-16.51231360652518	-0.04544227259003113	0.6499686114235117	-0.653428172301784	-0.5463247405594834	0.4375648866003635	-0.3220936441280043	1.848632459254577	-0.8000399913697713	-0.8000399913789397	-0.2993849596200734	-0.02067156954543919	-0.1922126608222527	0.4285613475655872	1.965261345113684e-07	1.546039343960764e-06	-5.837642235581234e-07	1.242795605448423e-07	3.244874499813229e-07	5.65108665158145e-07	2.388998428369159e-07
1.52	0.01741026150070039	-0.009629391266669823	0.8626948536103194	0.6257258394373727	-0.3201311282038731	-0.1497277770972586	-0.7776077003833172	0.7234675891096125	0.7234675891097393	-0.1077380013708192	-0.1745268630452969	0.1343212758833688	0.02000377341974984	0.31506996783604	0.2530376548597271	0.3999343299440377	-1.973155855501712	0.09517347687302655	-0.6416803166435302	0.880268840436483	-1.97328732754471	-1.973287327544713	-0.14483575840849	-0.0003403565741650482	-0.4330311320935423	-0.04172755892253569	-0.1774687753418376	0.002581561216635623	-0.004611108166278006	-0.2232696685492411	0.07517244194022583	0.0517390468904625	0.2615202155819144	-17.13640478989597	-22.27370407699752	6.29945426812552	-9.052742912846295	-660.733412732415	-89.07568639819657	-17.19493697518689	-0.07993584719893747	0.6322440470436383	-0.705312452780065	-0.3666653511200944	0.4565821315314242	-0.2194459854156516	1.781932787949024	-0.6209170570758656	-0.6209170570758791	-0.2861768891332857	0.05141246646035556	-0.131805643395376	0.4659917040222826	1.409512220928978e-07	1.808098421560725e-06	-2.285295387776457e-07	1.887552338795594e-07	2.939363307046625e-07	5.808166736537367e-07	2.168998382247808e-07
1.53	0.02055682892223066	-0.007067729581311626	0.8666582059865375	0.6059777382252155	-0.3191573316172537	-0.1561567684174272	-0.7687177298477702	0.7037059743777347	0.7037059743776669	-0.1092010814275016	-0.1745299573053729	0.1299847606731484	0.01960898942506778	0.3142004590850759	0.2592574297698721	0.392658354821709	-1.976196963155775	0.09958081270420868	-0.6440405733088453	0.8975746030266448	-1.978752012299255	-1.978752012299356	-0.1477770110883048	-0.000269832176539224	-0.4341915573065363	-0.03721481087438717	-0.1700496615925801	0.002282742492805991	-0.004516643132435426	-0.2198460432239213	0.07595852729965438	0.05028232240390499	0.2542540733470421	-16.69831961592391	-21.71632401766255	6.208958949148372	-8.883950234672723	-656.4909175351378	-88.33537422891693	-17.86875962292099	-0.09692389218482488	0.6112985020135616	-0.7503481274961722	-0.2327265280642782	0.4318330946263209	-0.2325085699784986	1.682298447569853	-0.4667459964318442	-0.4667459964466112	-0.297293830577029	-0.01386468352489045	-0.09604521815633354	0.4457861882201159	1.277771665742661e-07	1.89887477082019e-06	-1.603768465424703e-07	2.030978862595655e-07	2.994688296899511e-07	5.936498877034926e-07	2.149838461388748e-07
1.54	0.02369340815562143	-0.004444979289049296	0.8705464769944248	0.5862072473254136	-0.3181396569151786	-0.1626070009168273	-0.7596592215957181	0.6838982124359465	0.6838982124356976	-0.1106934128856069	-0.1745320937434822	0.1256390643592169	0.01925970687746902	0.3130723302085314	0.265255376240554	0.3849180562779002	-1.977633793030433	0.1039490999639792	-0.6459285524897247	0.9139763837376135	-1.982516769525323	-1.982516769525522	-0.1506860386949786	-0.0001487921764570552	-0.4348673528357275	-0.03262726950587955	-0.1626305478433219	0.001983923768976151	-0.004422178098493632	-0.2164224178986063	0.07674461265908225	0.04882559791734607	0.2469879311121704	-16.25868040091284	-21.16289178713742	6.123291808215932	-8.751904639077388	-652.2560122536494	-87.62647807724599	-18.53112990550025	-0.1316598723150801	0.5878783591510298	-0.7981771370761076	-0.04580979523929039	0.448772417249105	-0.1249904885285003	1.601136412110339	-0.2809315513804522	-0.2809315513804757	-0.2797318745050924	0.06151558695163963	-0.03487970663477598	0.4809503680941211	1.048089220076819e-07	1.956372299887439e-06	-7.609753761382724e-08	2.228177859356274e-07	2.783489303915222e-07	5.874520439890081e-07	2.083091164817815e-07
1.55	0.0268172552843907	-0.001763416598934839	0.8743550752510622	0.5664307166432336	-0.3170783912123191	-0.1690739195987376	-0.7504411215069857	0.6640615048335411	0.664061504833361	-0.1122142940107073	-0.1745327961754292	0.1212891416107194	0.01895684200370558	0.3116526706356255	0.2710137249565585	0.3767331796068653	-1.977402165951641	0.1082969704138419	-0.6473691636290282	0.9294829602704208	-1.984539480507671	-1.984539480507787	-0.1534834021148144	2.53215469494259e-05	-0.4350353061856616	-0.0279329750192745	-0.1552153713511391	0.001742972900905596	-0.004400749936703359	-0.2131743183363313	0.07762918217735849	0.04717380520410349	0.2397657463039362	-15.81830500820931	-20.51972118646282	6.017436144717492	-8.562234893400074	-648.3617636195331	-86.77170818297158	-19.17017023524546	-0.1537954827033803	0.5633502301710787	-0.8388657030261101	0.09816030785490207	0.4264723402263974	-0.1405242388281432	1.501317213053523	-0.1201881838649855	-0.1201881838525336	-0.2783850449129368	-0.002089807290917203	0.004588845112209569	0.4652544337974702	7.05560683206312e-08	1.975526840472358e-06	2.676243837467987e-08	2.487332096701881e-07	2.26520833070551e-07	5.593271119809434e-07	1.961514935361468e-07
1.56	0.02992557052084431	0.0009744369988087927	0.8780797801868073	0.5466646045015242	-0.3159739112086853	-0.175552629954482	-0.741072775865088	0.6442131206588689	0.6442131206587643	-0.1137628780638413	-0.1745312472846261	0.1169400077275792	0.01870123716377895	0.3099659517457246	0.2765135577663891	0.3681393920994713	-1.975550084936191	0.1125919601185675	-0.6482868872562079	0.9440254943707357	-1.984852083978141	-1.984852083978175	-0.1562266243022558	0.0003014723773117126	-0.4347095797641984	-0.02317526273851892	-0.1478001948589568	0.001502022032829894	-0.00437932177487291	-0.2099262187740591	0.07851375169563241	0.04552201249085298	0.2325435614957033	-15.38149416568205	-19.8790233098561	5.915512262421478	-8.388366548734908	-644.5425402882935	-85.94847920508266	-19.7810384858974	-0.1850717357141545	0.5361751779162537	-0.8799593043479452	0.2782809920920906	0.4381962682216822	-0.0204129861037258	1.408327925611796	0.06108995099504172	0.06108995099504225	-0.2689036280262218	0.08192300834277891	0.06385624764470486	0.4936339269242305	5.709917225365194e-08	1.941971125569258e-06	3.194405668431508e-08	2.531204973504378e-07	2.032971150303699e-07	5.463860102829556e-07	1.910537416571557e-07
1.57	0.03301561608762739	0.003765932771621376	0.8817165841176376	0.5269251950089994	-0.3148268192667084	-0.1820375154852047	-0.7315638541783911	0.6243701687562997	0.6243701687563219	-0.1153389066097915	-0.1745261369528562	0.1125965784850244	0.01849343919865648	0.3079951299167495	0.2817355354266975	0.3591618634897887	-1.972054755428448	0.1168122633781358	-0.6486082762682887	0.9575902740616228	-1.983448815566184	-1.983448815566166	-0.1589678149535279	0.0007309591612649027	-0.4338950888144288	-0.01837923509564221	-0.1404015880431558	0.001236564448930221	-0.004423761210040777	-0.2068086475653409	0.07943439285980489	0.04375457786334097	0.2253819285528424	-14.95960637253761	-19.1833959394223	5.80243972918506	-8.152055276230477	-641.043078108345	-85.0541075573356	-20.35934857155399	-0.2103008155461237	0.5077433807447108	-0.9155346169714129	0.4267077820835039	0.4116144175490996	-0.02553497427437267	1.305267654720087	0.2233280464074282	0.223328046415099	-0.2747460087135492	0.02496926449902885	0.1024728679667096	0.4730869553945615	6.963722321176174e-08	1.842527591306136e-06	-8.497227210463844e-08	2.30597614962799e-07	2.158288710911762e-07	5.524246964725635e-07	1.94780828611469e-07
